<svg
  height="20"
  viewBox="0 0 80 24"
  fill="none"
  xmlns="http://www.w3.org/2000/svg"
>
  <path
    d="M3.58542 18.9061V16.3592H12.6732V18.9061H3.58542ZM9.3008 0.489795L3.19493 23.5102H0L6.10587 0.489795H9.3008ZM9.3718 0.489795L15.4777 23.5102H12.3182L6.17687 0.489795H9.3718Z"
    fill="currentcolor"
  />
  <path
    d="M21.5905 15.5755L27.1638 0.489795H30.2168L24.6434 15.5755H21.5905ZM21.5905 23.5102V15.5755H24.6434V23.5102H21.5905ZM21.5905 15.5755L15.9816 0.489795H19.3185L24.6434 15.5755H21.5905Z"
    fill="currentcolor"
  />
  <path
    d="M35.4016 23.5102V20.9306H44.5249V23.5102H35.4016ZM33.2361 23.5102V0.489795H36.4666V23.5102H33.2361Z"
    fill="currentcolor"
  />
  <path
    d="M57.9946 17.8939V6.07347H61.2251V17.8939H57.9946ZM47.2029 17.8939V6.07347H50.4333V17.8939H47.2029ZM61.2251 6.10612H57.9946C57.9946 4.97415 57.6515 4.1034 56.9652 3.49388C56.3025 2.88435 55.3795 2.57959 54.1962 2.57959V0C55.5925 0 56.8113 0.261224 57.8526 0.783673C58.9176 1.28435 59.7459 2.00272 60.3376 2.93877C60.9292 3.85306 61.2251 4.90884 61.2251 6.10612ZM47.2029 6.10612C47.2029 4.90884 47.4987 3.85306 48.0904 2.93877C48.682 2.00272 49.5103 1.28435 50.5753 0.783673C51.6403 0.261224 52.8591 0 54.2317 0V2.57959C53.0484 2.57959 52.1136 2.88435 51.4273 3.49388C50.7646 4.1034 50.4333 4.97415 50.4333 6.10612H47.2029ZM61.2251 17.8612C61.2251 19.0803 60.9292 20.1469 60.3376 21.0612C59.7459 21.9755 58.9176 22.6939 57.8526 23.2163C56.8113 23.7388 55.5925 24 54.1962 24V21.4204C55.3795 21.4204 56.3025 21.1156 56.9652 20.5061C57.6515 19.8748 57.9946 18.9932 57.9946 17.8612H61.2251ZM47.2029 17.8612H50.4333C50.4333 18.9932 50.7646 19.8748 51.4273 20.5061C52.1136 21.1156 53.0484 21.4204 54.2317 21.4204V24C52.8591 24 51.6403 23.7388 50.5753 23.2163C49.5103 22.6939 48.682 21.9755 48.0904 21.0612C47.4987 20.1469 47.2029 19.0803 47.2029 17.8612Z"
    fill="currentcolor"
  />
  <path
    d="M75.9176 23.5102L65.9068 0.489795H69.0662L79.077 23.5102H75.9176ZM65.3033 23.5102V0.489795H68.5337V23.5102H65.3033ZM76.7696 23.5102V0.489795H80V23.5102H76.7696Z"
    fill="currentcolor"
  />
</svg>
