<svg
  width="100"
  height="24"
  viewBox="0 0 100 24"
  fill="none"
  xmlns="http://www.w3.org/2000/svg"
>
  <path
    d="M20.429 23.5518H16.8728L15.6104 20.5692H3.09437L1.86278 23.5518H0L8.39021 3.5235L7.15862 0.571797H10.761L20.429 23.5518ZM3.72556 19.0547H14.9792L9.29851 5.70251L3.72556 19.0547Z"
    fill="currentcolor"
  />
  <path
    d="M26.6896 13.105L19.4078 0.571797H23.3489L29.0604 10.926L34.4178 0.571797H36.2806L29.9379 12.9195V23.5518H26.6896V13.105Z"
    fill="currentcolor"
  />
  <path
    d="M43.4033 22.0373H52.825V23.5518H40.0318V0.571797H43.4033V22.0373Z"
    fill="currentcolor"
  />
  <path
    d="M66.1826 24C65.0536 24 63.9657 23.8558 62.9189 23.5673C61.8823 23.2788 60.9073 22.877 59.9938 22.3619C59.0907 21.8364 58.2645 21.208 57.5153 20.4765C56.7763 19.745 56.14 18.9363 55.6063 18.0502C55.0726 17.1539 54.6569 16.1958 54.3593 15.1758C54.0719 14.1455 53.9283 13.0741 53.9283 11.9614C53.9283 10.8693 54.0719 9.81326 54.3593 8.7933C54.6569 7.77334 55.0726 6.82035 55.6063 5.93432C56.14 5.04829 56.7763 4.23954 57.5153 3.50805C58.2645 2.77656 59.0907 2.15325 59.9938 1.63812C60.9073 1.12299 61.8823 0.721185 62.9189 0.432711C63.9657 0.144237 65.0536 0 66.1826 0C67.3013 0 68.3789 0.144237 69.4155 0.432711C70.4521 0.710882 71.422 1.11269 72.3251 1.63812C73.2283 2.15325 74.0494 2.77656 74.7883 3.50805C75.5375 4.23954 76.1739 5.04829 76.6973 5.93432C77.231 6.82035 77.6415 7.77334 77.9289 8.7933C78.2265 9.81326 78.3753 10.8693 78.3753 11.9614C78.3753 13.0741 78.2265 14.1455 77.9289 15.1758C77.6415 16.1958 77.231 17.1539 76.6973 18.0502C76.1739 18.9363 75.5375 19.745 74.7883 20.4765C74.0494 21.208 73.2283 21.8364 72.3251 22.3619C71.422 22.877 70.4521 23.2788 69.4155 23.5673C68.3789 23.8558 67.3013 24 66.1826 24ZM66.1826 22.501C67.5784 22.501 68.81 22.2279 69.8773 21.6819C70.955 21.1359 71.8582 20.3889 72.5869 19.4411C73.3155 18.4932 73.8646 17.3806 74.2341 16.103C74.6138 14.8152 74.8037 13.4346 74.8037 11.9614C74.8037 10.4984 74.619 9.12814 74.2495 7.85061C73.88 6.57308 73.3309 5.46555 72.6022 4.52801C71.8838 3.59047 70.9858 2.85383 69.9081 2.31809C68.8305 1.77205 67.5886 1.49903 66.1826 1.49903C64.756 1.49903 63.5039 1.77205 62.4262 2.31809C61.3589 2.85383 60.4608 3.59047 59.7321 4.52801C59.0137 5.46555 58.4697 6.57308 58.1003 7.85061C57.7411 9.12814 57.5615 10.4984 57.5615 11.9614C57.5615 13.4346 57.7462 14.8152 58.1157 16.103C58.4851 17.3806 59.0291 18.4932 59.7475 19.4411C60.4762 20.3889 61.3794 21.1359 62.457 21.6819C63.5347 22.2279 64.7765 22.501 66.1826 22.501Z"
    fill="currentcolor"
  />
  <path
    d="M100 23.5518H97.4137L84.7283 5.70251V23.5518H83.158V3.4926L81.1105 0.571797H85.2363L98.4143 19.1475V0.571797H100V23.5518Z"
    fill="currentcolor"
  />
</svg>
