<svg
  height="24"
  viewBox="0 0 119 32"
  fill="none"
  xmlns="http://www.w3.org/2000/svg"
>
  <rect
    width="32"
    height="32"
    rx="4"
    fill="rgb(var(--vistaUi-colors-primary))"
  />
  <path
    d="M8.18058 26C7.49915 25.8886 6.96536 25.6565 6.57922 25.3036C6.19307 24.9322 6 24.4865 6 23.9666C6 23.6137 6.10221 23.2423 6.30664 22.8524L14.4497 6.83566C14.7223 6.27855 15.2447 6 16.017 6C16.7439 6 17.255 6.27855 17.5503 6.83566L25.6934 22.8524C25.8978 23.2423 26 23.6137 26 23.9666C26 24.468 25.8069 24.9044 25.4208 25.2758C25.0346 25.6472 24.5009 25.8886 23.8194 26L20.8893 20.1783H11.1107L8.18058 26ZM19.9012 17.922L15.506 8.81337L15.2334 8.89694L15.8467 10.1783L12.0988 17.922H19.9012Z"
    fill="rgb(var(--vistaUi-colors-onPrimary))"
  />
  <path
    d="M44.4474 18.6741L36 6.33426C36.1583 6.24141 36.3958 6.16713 36.7124 6.11142C37.0517 6.03714 37.3683 6 37.6623 6C38.8158 6 39.6413 6.39926 40.1389 7.19777L45.9402 16.1393L45.2277 17.3092L45.4652 17.4206L51.911 7.19777C52.4312 6.39926 53.268 6 54.4215 6C54.7155 6 55.0209 6.03714 55.3375 6.11142C55.6768 6.16713 55.9255 6.24141 56.0839 6.33426L47.6364 18.6741V23.8273C47.6364 24.533 47.365 25.0715 46.8222 25.4429C46.2794 25.8143 45.4878 26 44.4474 26V18.6741Z"
    fill="currentcolor"
  />
  <path
    d="M61.6354 25.7493C61.1831 25.7493 60.7873 25.6193 60.448 25.3593C60.1314 25.0808 59.9731 24.7558 59.9731 24.3844V8.1727C59.9731 6.72423 61.0361 6 63.1621 6V23.4373H73.5772C74.3688 23.4373 74.9794 23.6416 75.4092 24.0501C75.8389 24.4401 76.0537 25.0065 76.0537 25.7493H61.6354Z"
    fill="currentcolor"
  />
  <path
    d="M86.322 26C84.4448 26 82.7599 25.7029 81.2671 25.1086C79.797 24.4958 78.6436 23.6602 77.8067 22.6017C76.9699 21.5246 76.5515 20.3361 76.5515 19.0362V12.9081C76.5515 11.6082 76.9699 10.4383 77.8067 9.39833C78.6436 8.33983 79.797 7.51346 81.2671 6.91922C82.7599 6.30641 84.4448 6 86.322 6C88.2218 6 89.9068 6.30641 91.3769 6.91922C92.8696 7.51346 94.0344 8.33983 94.8712 9.39833C95.7081 10.4383 96.1265 11.6082 96.1265 12.9081V19.0362C96.1265 20.3361 95.7081 21.5246 94.8712 22.6017C94.0344 23.6602 92.8696 24.4958 91.3769 25.1086C89.8842 25.7029 88.1992 26 86.322 26ZM86.322 23.7159C88.4254 23.7159 90.0651 23.2888 91.2412 22.4345C92.4173 21.5803 93.0053 20.4383 93.0053 19.0084V12.9638C93.0053 11.5339 92.4173 10.4011 91.2412 9.56546C90.0651 8.71124 88.4254 8.28412 86.322 8.28412C84.2413 8.28412 82.6128 8.71124 81.4368 9.56546C80.2607 10.4011 79.6726 11.5339 79.6726 12.9638V19.0084C79.6726 20.4383 80.2607 21.5803 81.4368 22.4345C82.6128 23.2888 84.2413 23.7159 86.322 23.7159Z"
    fill="currentcolor"
  />
  <path
    d="M100.028 8.25627C100.028 7.5506 100.288 7.00279 100.808 6.61281C101.351 6.20427 102.097 6 103.047 6L116.21 22.4345L116.448 22.2674L115.464 20.9304V6C116.504 6 117.284 6.1857 117.805 6.5571C118.347 6.92851 118.619 7.46704 118.619 8.1727V23.9387C118.619 24.533 118.359 25.0251 117.838 25.415C117.341 25.805 116.696 26 115.905 26L102.436 9.20334L102.199 9.37047L103.183 10.7075V23.8273C103.183 24.533 102.911 25.0715 102.368 25.4429C101.848 25.8143 101.068 26 100.028 26V8.25627Z"
    fill="currentcolor"
  />
</svg>
