<svg
  width="24"
  height="24"
  viewBox="0 0 24 24"
  fill="none"
  xmlns="http://www.w3.org/2000/svg"
>
  <g clip-path="url(#clip0_67_1186)">
    <path
      d="M22.5 12C22.5 6.20101 17.799 1.5 12 1.5C6.20101 1.5 1.5 6.20101 1.5 12C1.5 17.2408 5.33968 21.5847 10.3594 22.3724V15.0352H7.69336V12H10.3594V9.68672C10.3594 7.05516 11.927 5.60156 14.3254 5.60156C15.4738 5.60156 16.6758 5.80664 16.6758 5.80664V8.39062H15.3518C14.0475 8.39062 13.6406 9.20007 13.6406 10.0312V12H16.5527L16.0872 15.0352H13.6406V22.3724C18.6603 21.5847 22.5 17.2408 22.5 12Z"
      fill="currentcolor"
    />
  </g>
  <defs>
    <clipPath id="clip0_67_1186">
      <rect
        width="21"
        height="21"
        fill="white"
        transform="translate(1.5 1.5)"
      />
    </clipPath>
  </defs>
</svg>
