<svg
  width="24"
  height="24"
  viewBox="0 0 24 24"
  fill="none"
  xmlns="http://www.w3.org/2000/svg"
>
  <g clip-path="url(#clip0_67_1043)">
    <path
      fill-rule="evenodd"
      clip-rule="evenodd"
      d="M12.0002 1.45833C9.38887 1.45968 6.86312 2.38458 4.87463 4.06764C2.88614 5.7507 1.56458 8.08217 1.14625 10.6452C0.727923 13.2081 1.2401 15.8355 2.59122 18.0575C3.94233 20.2795 6.04427 21.9511 8.52119 22.7736C9.06764 22.875 9.27347 22.5363 9.27347 22.2483C9.27347 21.9604 9.26253 21.1254 9.25889 20.2126C6.19878 20.8737 5.55216 18.9213 5.55216 18.9213C5.05307 17.6535 4.33175 17.3202 4.33175 17.3202C3.33357 16.6429 4.40644 16.6555 4.40644 16.6555C5.51209 16.7334 6.09314 17.7839 6.09314 17.7839C7.07311 19.4556 8.66691 18.972 9.2935 18.6895C9.39186 17.9813 9.67784 17.4995 9.99296 17.2261C7.54851 16.9508 4.9802 16.0126 4.9802 11.8216C4.96505 10.7347 5.37069 9.68363 6.11318 8.88579C6.00025 8.61049 5.62319 7.49846 6.22064 5.98797C6.22064 5.98797 7.14415 5.69457 9.24615 7.10907C11.0491 6.61882 12.9514 6.61882 14.7543 7.10907C16.8545 5.69457 17.7762 5.98797 17.7762 5.98797C18.3755 7.49484 17.9984 8.60687 17.8855 8.88579C18.6303 9.68375 19.0368 10.7367 19.0203 11.8253C19.0203 16.0253 16.4465 16.9508 13.9984 17.2206C14.3919 17.5611 14.7434 18.2258 14.7434 19.2473C14.7434 20.7107 14.7307 21.8879 14.7307 22.2483C14.7307 22.5399 14.9292 22.8804 15.4866 22.7736C17.9638 21.951 20.0659 20.2791 21.417 18.0567C22.7681 15.8344 23.28 13.2066 22.8612 10.6434C22.4424 8.08015 21.1202 5.74865 19.1311 4.06588C17.1419 2.38311 14.6156 1.45882 12.0039 1.45833H12.0002Z"
      fill="currentcolor"
    />
    <path
      d="M8.35885 19.3107C8.35885 19.3994 8.25685 19.4755 8.1257 19.4773C7.99455 19.4791 7.88708 19.4066 7.88708 19.3179C7.88708 19.2292 7.98908 19.1531 8.12023 19.1513C8.25138 19.1495 8.35885 19.2201 8.35885 19.3107Z"
      fill="currentcolor"
    />
    <path
      d="M9.19674 19.1712C9.21313 19.2599 9.12206 19.3523 8.99091 19.3741C8.85976 19.3958 8.74501 19.3433 8.72862 19.2563C8.71222 19.1694 8.80694 19.0752 8.93444 19.0517C9.06195 19.0281 9.18035 19.0825 9.19674 19.1712Z"
      fill="currentcolor"
    />
    <path
      d="M7.45899 19.2491C7.43167 19.3342 7.3078 19.3723 7.18394 19.336C7.06008 19.2998 6.97811 19.1984 7.00179 19.1114C7.02547 19.0245 7.15116 18.9847 7.27684 19.0245C7.40252 19.0644 7.48267 19.1603 7.45899 19.2491Z"
      fill="currentcolor"
    />
    <path
      d="M6.63388 18.8941C6.57377 18.9611 6.45174 18.943 6.35155 18.8524C6.25137 18.7619 6.22769 18.6387 6.2878 18.5735C6.3479 18.5083 6.46995 18.5264 6.57377 18.6152C6.6776 18.7039 6.69764 18.8289 6.63388 18.8941V18.8941Z"
      fill="currentcolor"
    />
    <path
      d="M6.04556 18.2856C5.97816 18.3327 5.8634 18.2856 5.79965 18.1914C5.78202 18.1745 5.768 18.1542 5.75842 18.1318C5.74885 18.1094 5.7439 18.0853 5.7439 18.061C5.7439 18.0366 5.74885 18.0125 5.75842 17.9901C5.768 17.9677 5.78202 17.9475 5.79965 17.9306C5.86704 17.8853 5.9818 17.9306 6.04556 18.023C6.10931 18.1153 6.11113 18.2385 6.04556 18.2856V18.2856Z"
      fill="currentcolor"
    />
    <path
      d="M5.61202 17.6571C5.5743 17.676 5.53114 17.6813 5.48994 17.672C5.44873 17.6628 5.41205 17.6396 5.38615 17.6064C5.31512 17.5303 5.30054 17.4253 5.35518 17.3782C5.40983 17.3311 5.50819 17.3528 5.57923 17.4289C5.65027 17.505 5.66666 17.61 5.61202 17.6571Z"
      fill="currentcolor"
    />
    <path
      d="M5.16574 17.1627C5.14206 17.217 5.05462 17.2333 4.98359 17.1953C4.91255 17.1572 4.85973 17.0866 4.88523 17.0305C4.91073 16.9743 4.99634 16.9598 5.06738 16.9979C5.13842 17.0359 5.19306 17.1083 5.16574 17.1627Z"
      fill="currentcolor"
    />
  </g>
  <defs>
    <clipPath id="clip0_67_1043">
      <rect width="22" height="22" fill="white" transform="translate(1 1)" />
    </clipPath>
  </defs>
</svg>
