<svg
  width="24"
  height="24"
  viewBox="0 0 24 24"
  fill="none"
  xmlns="http://www.w3.org/2000/svg"
>
  <g clip-path="url(#clip0_67_1043)">
    <path
      fill-rule="evenodd"
      clip-rule="evenodd"
      d="M12.0002 1.9375C9.50756 1.93879 7.09661 2.82165 5.19851 4.42821C3.30041 6.03476 2.03892 8.26026 1.6396 10.7067C1.24029 13.1532 1.72919 15.6612 3.01889 17.7822C4.30859 19.9031 6.31498 21.4988 8.67931 22.2839C9.20092 22.3807 9.3974 22.0574 9.3974 21.7825C9.3974 21.5076 9.38696 20.7106 9.38348 19.8393C6.46247 20.4703 5.84524 18.6067 5.84524 18.6067C5.36883 17.3965 4.68031 17.0784 4.68031 17.0784C3.7275 16.4318 4.7516 16.4439 4.7516 16.4439C5.80699 16.5183 6.36164 17.521 6.36164 17.521C7.29706 19.1167 8.81841 18.6551 9.41652 18.3854C9.51041 17.7094 9.78339 17.2496 10.0842 16.9885C7.75085 16.7257 5.29928 15.8302 5.29928 11.8297C5.28482 10.7922 5.67202 9.78892 6.38076 9.02735C6.27296 8.76457 5.91304 7.70308 6.48334 6.26125C6.48334 6.26125 7.36486 5.98119 9.37132 7.33139C11.0923 6.86342 12.9081 6.86342 14.6291 7.33139C16.6339 5.98119 17.5136 6.26125 17.5136 6.26125C18.0857 7.69962 17.7258 8.76111 17.618 9.02735C18.3289 9.78904 18.717 10.7941 18.7012 11.8332C18.7012 15.8423 16.2444 16.7257 13.9076 16.9833C14.2831 17.3083 14.6187 17.9428 14.6187 18.9179C14.6187 20.3147 14.6065 21.4385 14.6065 21.7825C14.6065 22.0608 14.7961 22.3859 15.3281 22.2839C17.6927 21.4987 19.6993 19.9027 20.989 17.7814C22.2787 15.6601 22.7673 13.1518 22.3675 10.705C21.9678 8.25833 20.7056 6.03281 18.8069 4.42653C16.9082 2.82025 14.4967 1.93797 12.0037 1.9375H12.0002Z"
      fill="currentcolor"
    />
    <path
      d="M8.52435 18.9784C8.52435 19.0631 8.42699 19.1357 8.30181 19.1374C8.17662 19.1391 8.07404 19.07 8.07404 18.9853C8.07404 18.9006 8.1714 18.8279 8.29658 18.8262C8.42177 18.8245 8.52435 18.8919 8.52435 18.9784Z"
      fill="currentcolor"
    />
    <path
      d="M9.32416 18.8452C9.33981 18.93 9.25287 19.0181 9.12768 19.0389C9.0025 19.0596 8.89296 19.0095 8.87731 18.9265C8.86166 18.8435 8.95208 18.7536 9.07379 18.7311C9.19549 18.7087 9.30851 18.7605 9.32416 18.8452Z"
      fill="currentcolor"
    />
    <path
      d="M7.6654 18.9196C7.63932 19.0008 7.52109 19.0371 7.40286 19.0026C7.28463 18.968 7.20638 18.8712 7.22899 18.7882C7.25159 18.7052 7.37156 18.6672 7.49153 18.7052C7.6115 18.7432 7.68801 18.8349 7.6654 18.9196Z"
      fill="currentcolor"
    />
    <path
      d="M6.8778 18.5807C6.82042 18.6447 6.70393 18.6274 6.6083 18.541C6.51267 18.4545 6.49006 18.337 6.54744 18.2747C6.60482 18.2125 6.72131 18.2298 6.82042 18.3145C6.91952 18.3992 6.93865 18.5185 6.8778 18.5807V18.5807Z"
      fill="currentcolor"
    />
    <path
      d="M6.31621 17.9999C6.25188 18.0448 6.14234 17.9999 6.08148 17.91C6.06466 17.8938 6.05128 17.8745 6.04213 17.8531C6.03299 17.8317 6.02827 17.8087 6.02827 17.7855C6.02827 17.7622 6.03299 17.7392 6.04213 17.7179C6.05128 17.6965 6.06466 17.6771 6.08148 17.661C6.14582 17.6178 6.25536 17.661 6.31621 17.7492C6.37707 17.8373 6.37881 17.9549 6.31621 17.9999V17.9999Z"
      fill="currentcolor"
    />
    <path
      d="M5.90238 17.4C5.86637 17.418 5.82518 17.423 5.78585 17.4142C5.74652 17.4054 5.7115 17.3832 5.68678 17.3516C5.61897 17.2789 5.60506 17.1787 5.65722 17.1337C5.70938 17.0888 5.80327 17.1095 5.87108 17.1821C5.93889 17.2547 5.95454 17.355 5.90238 17.4Z"
      fill="currentcolor"
    />
    <path
      d="M5.47638 16.928C5.45378 16.9799 5.37032 16.9954 5.30251 16.9591C5.2347 16.9228 5.18428 16.8554 5.20863 16.8018C5.23297 16.7482 5.31469 16.7344 5.3825 16.7707C5.4503 16.807 5.50246 16.8761 5.47638 16.928Z"
      fill="currentcolor"
    />
  </g>
  <defs>
    <clipPath id="clip0_67_1043">
      <rect
        width="21"
        height="21"
        fill="white"
        transform="translate(1.5 1.5)"
      />
    </clipPath>
  </defs>
</svg>
